<svg width="24" height="25" viewBox="0 0 24 25" fill="none" xmlns="http://www.w3.org/2000/svg">
<path d="M12 2.03027C15.866 2.03027 19 5.21218 19 9.13672C18.9997 14.223 13.8928 17.2862 12.4033 18.0713C12.1479 18.2059 11.8521 18.2059 11.5967 18.0713C10.1072 17.2862 5.00028 14.223 5 9.13672C5 5.21218 8.13401 2.03027 12 2.03027ZM12 6.09082C10.3431 6.09082 9 7.45477 9 9.13672C9.00022 10.8185 10.3433 12.1816 12 12.1816C13.6567 12.1816 14.9998 10.8185 15 9.13672C15 7.45477 13.6569 6.09082 12 6.09082Z" fill="#EFD17A"/>
<path d="M18.0622 16.7499C18.6766 17.2129 19 17.738 19 18.2726C19 18.8072 18.6766 19.3324 18.0622 19.7953C17.4478 20.2583 16.5641 20.6427 15.5 20.91C14.4359 21.1773 13.2288 21.318 12 21.318C10.7712 21.318 9.56414 21.1773 8.5 20.91C7.43587 20.6427 6.5522 20.2583 5.93782 19.7953C5.32344 19.3324 5 18.8072 5 18.2726C5 17.738 5.32344 17.2129 5.93782 16.7499" stroke="#EFD17A" stroke-width="2" stroke-linecap="round"/>
</svg>
