<svg width="24" height="25" viewBox="0 0 24 25" fill="none" xmlns="http://www.w3.org/2000/svg">
<path d="M15 5.07617C17.8281 5.07617 19.2424 5.07568 20.1211 5.9541C20.9998 6.83278 21 8.24775 21 11.0762V13.2881C21 16.1163 20.9997 17.5305 20.1211 18.4092C19.2424 19.2877 17.8282 19.2881 15 19.2881H9C6.17176 19.2881 4.7576 19.2877 3.87891 18.4092C3.00026 17.5305 3 16.1163 3 13.2881V11.0762C3 8.24774 3.00023 6.83278 3.87891 5.9541C4.75761 5.07568 6.17185 5.07617 9 5.07617H15ZM18.8281 8.57617C18.5186 8.11884 17.8968 7.99907 17.4395 8.30859L12 11.9902L6.56055 8.30859C6.10318 7.99907 5.48143 8.11884 5.17188 8.57617C4.8626 9.03351 4.98222 9.65535 5.43945 9.96484L10.8789 13.6465C11.5559 14.1045 12.4441 14.1045 13.1211 13.6465L18.5605 9.96484C19.0178 9.65535 19.1374 9.03351 18.8281 8.57617Z" fill="#EFD17A"/>
</svg>
